<svg width="20" height="20" viewBox="0 0 20 20" fill="none" xmlns="http://www.w3.org/2000/svg">
<path d="M19.0625 5H18.75V3.125C18.75 1.375 14.875 0 10 0C5.125 0 1.25 1.375 1.25 3.125V5H0.9375C0.419922 5 0 5.41953 0 5.9375V9.0625C0 9.58008 0.419922 10 0.9375 10H1.25V16.25C1.25 16.9402 1.80977 17.5 2.5 17.5V18.75C2.5 19.4402 3.05977 20 3.75 20H5C5.69023 20 6.25 19.4402 6.25 18.75V17.5H13.75V18.75C13.75 19.4402 14.3098 20 15 20H16.25C16.9402 20 17.5 19.4402 17.5 18.75V17.5H17.75C18.375 17.5 18.75 17 18.75 16.5V10H19.0625C19.5801 10 20 9.58008 20 9.0625V5.9375C20 5.41953 19.5801 5 19.0625 5ZM4.375 15.625C3.68477 15.625 3.125 15.0652 3.125 14.375C3.125 13.6848 3.68477 13.125 4.375 13.125C5.06523 13.125 5.625 13.6848 5.625 14.375C5.625 15.0652 5.06523 15.625 4.375 15.625ZM5 11.25C4.30977 11.25 3.75 10.6902 3.75 10V5C3.75 4.30977 4.30977 3.75 5 3.75H15C15.6902 3.75 16.25 4.30977 16.25 5V10C16.25 10.6902 15.6902 11.25 15 11.25H5ZM15.625 15.625C14.9348 15.625 14.375 15.0652 14.375 14.375C14.375 13.6848 14.9348 13.125 15.625 13.125C16.3152 13.125 16.875 13.6848 16.875 14.375C16.875 15.0652 16.3152 15.625 15.625 15.625Z" fill="#434A67"/>
</svg>
