<svg id="Component_8_11" data-name="Component 8 – 11" xmlns="http://www.w3.org/2000/svg" xmlns:xlink="http://www.w3.org/1999/xlink" width="24" height="24" viewBox="0 0 24 24">
  <defs>
    <clipPath id="clip-path">
      <rect id="Rectangle_26" data-name="Rectangle 26" width="24" height="24" fill="#10af7e" stroke="#10af7e" stroke-width="1"/>
    </clipPath>
  </defs>
  <g id="Mask_Group_3" data-name="Mask Group 3" clip-path="url(#clip-path)">
    <g id="bus" transform="translate(2.191 1.064)">
      <g id="Group_41" data-name="Group 41" transform="translate(0)">
        <g id="Group_40" data-name="Group 40">
          <path id="Path_108" data-name="Path 108" d="M65.474,0H50.5A2.342,2.342,0,0,0,48,2.131V17.473a1.956,1.956,0,0,0,1.023,1.6.805.805,0,0,0-.025.107v1.492a1.625,1.625,0,0,0,1.747,1.492h.5a1.625,1.625,0,0,0,1.747-1.492V19.6h9.985v1.065a1.625,1.625,0,0,0,1.747,1.492h.5a1.625,1.625,0,0,0,1.747-1.492V19.177a2.044,2.044,0,0,0,1-1.7V2.131A2.342,2.342,0,0,0,65.474,0ZM51.994,20.669a.688.688,0,0,1-.749.639h-.5A.688.688,0,0,1,50,20.669V19.5a3.025,3.025,0,0,0,.749.107h1.248Zm13.979,0a.688.688,0,0,1-.749.639h-.5a.688.688,0,0,1-.749-.639V19.6h1.5a3.584,3.584,0,0,0,.5-.043Zm1-3.2a1.405,1.405,0,0,1-1.5,1.278H50.746c-.8,0-1.747-.575-1.747-1.278V13.637H66.972Zm0-4.688H49V4.262H66.972Zm0-9.376H49V2.131A1.405,1.405,0,0,1,50.5.852H65.474a1.405,1.405,0,0,1,1.5,1.278Z" transform="translate(-48)" fill="#10af7e" stroke="#10af7e" stroke-width="0.5"/>
          <path id="Path_109" data-name="Path 109" d="M135.2,32h-2.77a.426.426,0,0,0,0,.852h2.77a.426.426,0,0,0,0-.852Z" transform="translate(-123.739 -30.295)" fill="#10af7e" stroke="#10af7e" stroke-width="0.5"/>
          <path id="Path_111" data-name="Path 111" d="M85.279,278.557A1.278,1.278,0,1,0,84,277.279,1.282,1.282,0,0,0,85.279,278.557Zm0-1.7a.426.426,0,1,1-.426.426A.427.427,0,0,1,85.279,276.852Z" transform="translate(-81.279 -261.297)" fill="#10af7e" stroke="#10af7e" stroke-width="0.5"/>
          <path id="Path_112" data-name="Path 112" d="M285.279,278.557A1.278,1.278,0,1,0,284,277.279,1.282,1.282,0,0,0,285.279,278.557Zm0-1.7a.426.426,0,1,1-.426.426A.427.427,0,0,1,285.279,276.852Z" transform="translate(-268.906 -261.297)" fill="#10af7e" stroke="#10af7e" stroke-width="0.5"/>
        </g>
      </g>
    </g>
  </g>
</svg>
