<svg id="Component_13_11" data-name="Component 13 – 11" xmlns="http://www.w3.org/2000/svg" xmlns:xlink="http://www.w3.org/1999/xlink" width="24" height="24" viewBox="0 0 24 24">
  <defs>
    <clipPath id="clip-path">
      <rect id="Rectangle_32" data-name="Rectangle 32" width="24" height="24" fill="none" stroke="#10af7e" stroke-width="1"/>
    </clipPath>
  </defs>
  <g id="Mask_Group_9" data-name="Mask Group 9" clip-path="url(#clip-path)">
    <g id="mail" transform="translate(1 4)">
      <g id="Path_215" data-name="Path 215" transform="translate(-2 -4)" fill="none" stroke-linecap="round" stroke-linejoin="round">
        <path d="M4.162,4h17.3a2.169,2.169,0,0,1,2.162,2.162V19.135A2.169,2.169,0,0,1,21.46,21.3H4.162A2.169,2.169,0,0,1,2,19.135V6.162A2.169,2.169,0,0,1,4.162,4Z" stroke="none"/>
        <path d="M 4.162189483642578 5.600004196166992 C 3.857450485229492 5.600004196166992 3.600000381469727 5.857454299926758 3.600000381469727 6.16218376159668 L 3.600000381469727 19.13530349731445 C 3.600000381469727 19.44003486633301 3.857450485229492 19.69748497009277 4.162189483642578 19.69748497009277 L 21.45967102050781 19.69748497009277 C 21.7644100189209 19.69748497009277 22.02186012268066 19.44003486633301 22.02186012268066 19.13530349731445 L 22.02186012268066 6.16218376159668 C 22.02186012268066 5.857454299926758 21.7644100189209 5.600004196166992 21.45967102050781 5.600004196166992 L 4.162189483642578 5.600004196166992 M 4.162189483642578 4.000003814697266 L 21.45967102050781 4.000003814697266 C 22.64888000488281 4.000003814697266 23.62186050415039 4.972984313964844 23.62186050415039 6.16218376159668 L 23.62186050415039 19.13530349731445 C 23.62186050415039 20.32450485229492 22.64888000488281 21.2974853515625 21.45967102050781 21.2974853515625 L 4.162189483642578 21.2974853515625 C 2.972980499267578 21.2974853515625 2 20.32450485229492 2 19.13530349731445 L 2 6.16218376159668 C 2 4.972984313964844 2.972980499267578 4.000003814697266 4.162189483642578 4.000003814697266 Z" stroke="none" fill="#10af7e"/>
      </g>
      <path id="Path_216" data-name="Path 216" d="M20.985,6l-9.492,6.452L2,6" transform="translate(-0.637 -3.803)" fill="none" stroke="#10af7e" stroke-linecap="round" stroke-linejoin="round" stroke-width="1.6"/>
    </g>
  </g>
</svg>
