<svg width="13" height="18" viewBox="0 0 13 18" fill="none" xmlns="http://www.w3.org/2000/svg">
<g clip-path="url(#clip0)">
<path d="M5.83199 16.9836C0.913047 9.85261 0 9.12075 0 6.5C0 2.91014 2.91014 0 6.5 0C10.0899 0 13 2.91014 13 6.5C13 9.12075 12.087 9.85261 7.16801 16.9836C6.84521 17.4499 6.15476 17.4499 5.83199 16.9836ZM6.5 9.20833C7.99578 9.20833 9.20833 7.99578 9.20833 6.5C9.20833 5.00422 7.99578 3.79167 6.5 3.79167C5.00422 3.79167 3.79167 5.00422 3.79167 6.5C3.79167 7.99578 5.00422 9.20833 6.5 9.20833Z" fill="#FF5252"/>
</g>
<defs>
<clipPath id="clip0">
<rect width="13" height="17.3333" fill="white"/>
</clipPath>
</defs>
</svg>
