<?xml version="1.0"?>
<svg xmlns="http://www.w3.org/2000/svg" xmlns:xlink="http://www.w3.org/1999/xlink" xmlns:svgjs="http://svgjs.com/svgjs" version="1.1" width="512" height="512" x="0" y="0" viewBox="0 0 512 512" style="enable-background:new 0 0 512 512" xml:space="preserve" class=""><g><g xmlns="http://www.w3.org/2000/svg"><g><path d="m437.02 74.981c-48.352-48.352-112.639-74.981-181.02-74.981s-132.667 26.629-181.02 74.981c-48.351 48.352-74.98 112.639-74.98 181.019s26.629 132.667 74.98 181.02c48.353 48.351 112.639 74.98 181.02 74.98s132.668-26.629 181.02-74.98c48.351-48.353 74.98-112.64 74.98-181.02s-26.629-132.667-74.98-181.019z" fill="#ffcd38" data-original="#79d6de" style="" class=""/><path d="m437.02 74.981c-48.352-48.352-112.639-74.981-181.02-74.981v512c68.381 0 132.668-26.629 181.02-74.98 48.351-48.353 74.98-112.64 74.98-181.02s-26.629-132.667-74.98-181.019z" fill="#ffad26" data-original="#60a9b0" style="" class=""/><g fill="#faf3f4"><path d="m256 150.5c21.56 0 39.1-17.54 39.1-39.101 0-21.56-17.539-39.1-39.1-39.1-21.559 0-39.1 17.54-39.1 39.1 0 21.561 17.541 39.101 39.1 39.101z" fill="#ffffff" data-original="#faf3f4" style="" class=""/><path d="m295.1 364.491v-156.691c0-21.56-17.539-39.1-39.1-39.1h-24.1c-21.559 0-39.1 17.54-39.1 39.1 0 16.249 9.963 30.214 24.1 36.108v156.692c0 21.561 17.541 39.101 39.1 39.101h24.1c21.561 0 39.102-17.54 39.102-39.101-.001-16.249-9.964-30.214-24.102-36.109z" fill="#ffffff" data-original="#faf3f4" style="" class=""/></g></g><g fill="#daebeb"><path d="m295.1 111.399c0-21.56-17.539-39.1-39.1-39.1v78.2c21.56.001 39.1-17.539 39.1-39.1z" fill="#ffffff" data-original="#daebeb" style="" class=""/><path d="m295.1 364.491v-156.691c0-21.56-17.539-39.1-39.1-39.1v271h24.1c21.561 0 39.102-17.54 39.102-39.101-.001-16.248-9.964-30.213-24.102-36.108z" fill="#ffffff" data-original="#daebeb" style="" class=""/></g></g></g></svg>
