<svg width="13" height="21" viewBox="0 0 13 21" fill="none" xmlns="http://www.w3.org/2000/svg">
<g clip-path="url(#clip0)">
<path d="M8.44996 3.9C9.52653 3.9 10.4 3.02656 10.4 1.95C10.4 0.873437 9.52653 0 8.44996 0C7.3734 0 6.49996 0.873437 6.49996 1.95C6.49996 3.02656 7.3734 3.9 8.44996 3.9ZM12.289 9.95719L11.3425 9.47781L10.9484 8.28344C10.3512 6.47156 8.68559 5.20406 6.79653 5.2C5.33403 5.19594 4.52559 5.61031 3.00621 6.22375C2.12871 6.57719 1.40965 7.2475 0.987149 8.10062L0.714961 8.65312C0.398086 9.295 0.654024 10.075 1.29184 10.3959C1.92559 10.7169 2.69746 10.4569 3.0184 9.815L3.29059 9.2625C3.43277 8.97812 3.6684 8.75469 3.9609 8.63688L5.04965 8.19812L4.43215 10.6641C4.2209 11.5091 4.4484 12.4069 5.03746 13.0528L7.4709 15.7097C7.7634 16.0306 7.97059 16.4166 8.07621 16.835L8.81965 19.8128C8.99434 20.5075 9.70121 20.9341 10.3959 20.7594C11.0906 20.5847 11.5172 19.8778 11.3425 19.1831L10.4406 15.5675C10.335 15.1491 10.1278 14.7591 9.83528 14.4422L7.98684 12.4231L8.68559 9.63219L8.90903 10.3025C9.12434 10.9566 9.58746 11.4969 10.1968 11.8056L11.1434 12.285C11.7772 12.6059 12.549 12.3459 12.87 11.7041C13.1828 11.0662 12.9268 10.2781 12.289 9.95719ZM2.98996 15.6731C2.85996 16.0022 2.66496 16.2987 2.41309 16.5466L0.381836 18.5819C-0.125977 19.0897 -0.125977 19.9144 0.381836 20.4222C0.889649 20.93 1.71027 20.93 2.21809 20.4222L4.63121 18.0091C4.87902 17.7612 5.07403 17.4647 5.20809 17.1356L5.75653 15.7625C3.50996 13.3128 4.18434 14.0644 3.8309 13.5809L2.98996 15.6731Z" fill="#434A67"/>
</g>
<defs>
<clipPath id="clip0">
<rect width="13" height="20.8" fill="white"/>
</clipPath>
</defs>
</svg>
