<svg width="35" height="35" viewBox="0 0 35 35" fill="none" xmlns="http://www.w3.org/2000/svg">
<rect width="35" height="35" rx="8" fill="#00897B"/>
<g clip-path="url(#clip0)">
<path d="M11.7499 14.5407V22.7969C11.7499 22.9781 11.9178 23.125 12.1249 23.125H13.8749C14.082 23.125 14.2499 22.9781 14.2499 22.7969V14.5407H15.6893C16.3574 14.5407 16.6921 13.8338 16.2196 13.4204L13.5303 11.0672C13.2373 10.8109 12.7625 10.8109 12.4696 11.0672L9.78025 13.4204C9.30778 13.8338 9.64241 14.5407 10.3106 14.5407H11.7499Z" fill="white"/>
</g>
<path d="M23.2499 22.4593V14.2031C23.2499 14.0219 23.082 13.875 22.8749 13.875H21.1249C20.9178 13.875 20.7499 14.0219 20.7499 14.2031V22.4593H19.3106C18.6424 22.4593 18.3078 23.1662 18.7803 23.5796L21.4696 25.9328C21.7625 26.1891 22.2374 26.1891 22.5303 25.9328L25.2196 23.5796C25.6921 23.1662 25.3574 22.4593 24.6893 22.4593H23.2499Z" fill="white"/>
<defs>
<clipPath id="clip0">
<rect width="8" height="14" fill="white" transform="translate(9 8)"/>
</clipPath>
</defs>
</svg>
